<?xml version="1.0" standalone="no"?><!DOCTYPE svg PUBLIC "-//W3C//DTD SVG 1.1//EN" "http://www.w3.org/Graphics/SVG/1.1/DTD/svg11.dtd"><svg t="1631257132177" class="icon" viewBox="0 0 1024 1024" version="1.1" xmlns="http://www.w3.org/2000/svg" p-id="2164" xmlns:xlink="http://www.w3.org/1999/xlink" width="200" height="200"><defs><style type="text/css"></style></defs><path d="M211.978 812.546h600.825V211.607H211.978v600.939z m81.96-518.963h436.906v436.994H293.938V293.583zM116.546 320.85c22.615 0 40.9-18.284 40.9-40.905V157.064H280.3c22.62 0 40.905-18.285 40.905-40.911S302.92 75.242 280.3 75.242H116.546c-22.626 0-40.905 18.284-40.905 40.91V280.1c-0.153 22.468 18.131 40.752 40.905 40.752zM280.3 867.095H157.447V744.213c0-22.632-18.285-40.917-40.9-40.917-22.626 0-40.905 18.285-40.905 40.917V908c0 22.626 18.279 40.911 40.905 40.911H280.46c22.627 0 40.906-18.285 40.906-40.91-0.16-22.622-18.444-40.906-41.065-40.906zM908.389 75.088H744.476c-22.616 0-40.9 18.284-40.9 40.905 0 22.627 18.284 40.911 40.9 40.911H867.34v122.887c0 22.62 18.279 40.905 40.9 40.905 22.615 0 40.9-18.284 40.9-40.905V115.994c0.153-22.62-18.126-40.906-40.752-40.906z m0 628.208c-22.615 0-40.9 18.285-40.9 40.917v122.88H744.634c-22.626 0-40.9 18.285-40.9 40.906 0 22.626 18.274 40.91 40.9 40.91h163.919c22.615 0 40.9-18.284 40.9-40.91V744.213c-0.159-22.632-18.438-40.917-41.064-40.917z m0 0" p-id="2165" fill="#ffffff"></path></svg>